<svg xmlns="http://www.w3.org/2000/svg" width="18" height="18" viewBox="0 0 18 18"><path fill="#fff" d="M0 0h18v18H0z"/><path fill="#3f4a56" d="M0 0h18v5H0z"/><path fill="#57a863" d="M0 13h18v5H0z"/><path fill="#fff" d="M12 3.5L10.9 3 9 7 7.1 3 6 3.5l2.3 5-2.3 5 1.1.5L9 10l1.9 4 1.1-.5-2.3-5z"/><path fill="#ed5565" d="M7 6H0v6h7c.3.9 1.3 2 2 2s1.7-1.1 2-2h7V6h-7c-.3-.9-1.3-2-2-2S7.3 5.1 7 6z"/><path fill="#f7f8fa" d="M8.5 5h1v8h-1z"/><path fill="#3f4a56" d="M7 6v6c-.6-.9-1-1.9-1-3s.4-2.1 1-3zm4 0v6c.6-.9 1-1.9 1-3s-.4-2.1-1-3z"/></svg>