<svg width="18" height="18" viewBox="0 0 18 18" fill="none" xmlns="http://www.w3.org/2000/svg"><path d="M12.91.9A8.96 8.96 0 0 0 5.1.9L4.3 9l.79 8.1a8.96 8.96 0 0 0 7.82 0L13.7 9 12.9.9z" fill="#FC0"/><path d="M5.09.9a9 9 0 0 0 0 16.2V.9zM12.91.9v16.2a9 9 0 0 0 0-16.2z" fill="#4758A9"/><path d="M11.74 5.48l.52.26-.52-.26-.53-.26a9.79 9.79 0 0 0-.82 3.58h-.8V5.48L9 4.7l-.59.78V8.8h-.8a9.78 9.78 0 0 0-.82-3.58l-1.05.52c0 .02.72 1.47.72 3.65v.59H8.4v3.32H9.6V9.98h1.95v-.59c0-1.13.2-2.06.36-2.64.18-.64.36-1 .37-1.01l-.53-.26z" fill="#000"/></svg>