<svg width="18" height="18" viewBox="0 0 18 18" fill="none" xmlns="http://www.w3.org/2000/svg"><path d="M9 18A9 9 0 1 0 9 0a9 9 0 0 0 0 18z" fill="#F0F0F0"/><path d="M1.1 4.7h15.8a9 9 0 0 0-15.8 0zM9 18a9 9 0 0 0 7.9-4.7H1.1A9 9 0 0 0 9 18z" fill="#ED5565"/><path d="M12.13 9c0 1.73-1.4 2.74-3.13 2.74S5.87 10.73 5.87 9a3.13 3.13 0 1 1 6.26 0z" fill="#FC0"/><path d="M12.13 9a3.13 3.13 0 1 1-6.26 0" fill="#4758A9"/><path d="M7.83 8.22h-.79v1.56h.79V8.22zM10.96 8.22h-.79v1.56h.79V8.22zM9.4 7.04h-.8v2.74h.8V7.04z" fill="#ED5565"/></svg>